<svg xmlns="http://www.w3.org/2000/svg" width="800" height="120" viewBox="0 0 800 120">
  <defs>
    <radialGradient id="bgGlow" cx="50%" cy="50%" r="50%">
      <stop offset="0%" stop-color="#1a2e1c" stop-opacity="0.5"/>
      <stop offset="100%" stop-color="#0a0f0b" stop-opacity="0"/>
    </radialGradient>
    <filter id="djinnGlow" x="-100%" y="-100%" width="300%" height="300%">
      <feGaussianBlur in="SourceGraphic" stdDeviation="3.5" result="blur"/>
      <feMerge><feMergeNode in="blur"/><feMergeNode in="SourceGraphic"/></feMerge>
    </filter>
    <filter id="starGlow" x="-500%" y="-500%" width="1100%" height="1100%">
      <feGaussianBlur in="SourceGraphic" stdDeviation="2.5" result="blur"/>
      <feMerge><feMergeNode in="blur"/><feMergeNode in="SourceGraphic"/></feMerge>
    </filter>
    <pattern id="scan" x="0" y="0" width="800" height="4" patternUnits="userSpaceOnUse">
      <rect x="0" y="3" width="800" height="1" fill="rgba(0,0,0,0.025)"/>
    </pattern>
  </defs>

  <!-- backgrounds -->
  <rect width="800" height="120" fill="#0a0f0b"/>
  <rect width="800" height="120" fill="url(#bgGlow)"/>
  <rect width="800" height="120" fill="url(#scan)"/>

  <!-- double border -->
  <rect x=".5" y=".5" width="799" height="119" fill="none" stroke="rgba(79,157,91,.35)" stroke-width="1"/>
  <rect x="3.5" y="3.5" width="793" height="113" fill="none" stroke="rgba(79,157,91,.12)" stroke-width="1"/>

  <!-- corner ornaments -->
  <rect x="6" y="6" width="4" height="4" fill="rgba(79,157,91,.4)"/>
  <rect x="790" y="6" width="4" height="4" fill="rgba(79,157,91,.4)"/>
  <rect x="6" y="110" width="4" height="4" fill="rgba(79,157,91,.4)"/>
  <rect x="790" y="110" width="4" height="4" fill="rgba(79,157,91,.4)"/>

  <!-- twinkling stars -->
  <circle cx="40" cy="18" r="1.5" fill="#AFC3B2" filter="url(#starGlow)">
    <animate attributeName="opacity" values=".8;.12;.8" dur="2.1s" repeatCount="indefinite"/>
  </circle>
  <circle cx="175" cy="12" r="2" fill="#4F9D5B" filter="url(#starGlow)">
    <animate attributeName="opacity" values=".2;1;.2" dur="3.2s" repeatCount="indefinite" begin="-1.1s"/>
  </circle>
  <circle cx="225" cy="26" r="1.5" fill="#AFC3B2" filter="url(#starGlow)">
    <animate attributeName="opacity" values=".9;.1;.9" dur="2.8s" repeatCount="indefinite" begin="-.6s"/>
  </circle>
  <circle cx="400" cy="14" r="2" fill="#C4A84F" filter="url(#starGlow)">
    <animate attributeName="opacity" values=".15;.85;.15" dur="3.5s" repeatCount="indefinite" begin="-2s"/>
  </circle>
  <circle cx="575" cy="22" r="1.5" fill="#AFC3B2" filter="url(#starGlow)">
    <animate attributeName="opacity" values=".7;.1;.7" dur="2.4s" repeatCount="indefinite" begin="-.8s"/>
  </circle>
  <circle cx="755" cy="16" r="2" fill="#4F9D5B" filter="url(#starGlow)">
    <animate attributeName="opacity" values=".3;1;.3" dur="3.0s" repeatCount="indefinite" begin="-1.5s"/>
  </circle>
  <circle cx="340" cy="95" r="1.5" fill="#C4614F" filter="url(#starGlow)">
    <animate attributeName="opacity" values=".6;.1;.6" dur="2.6s" repeatCount="indefinite" begin="-1.8s"/>
  </circle>
  <circle cx="460" cy="100" r="2" fill="#5BA8C4" filter="url(#starGlow)">
    <animate attributeName="opacity" values=".25;.85;.25" dur="3.8s" repeatCount="indefinite" begin="-.4s"/>
  </circle>

  <!-- ══ VENUS DJINN (Earth · Green) x=110 ══ -->
  <g>
    <animateTransform attributeName="transform" type="translate"
      values="110,58; 110,45; 110,58" dur="3.2s" repeatCount="indefinite"
      calcMode="spline" keyTimes="0;.5;1" keySplines=".45 0 .55 1;.45 0 .55 1"/>
    <g filter="url(#djinnGlow)">
      <rect x="-6" y="-9" width="3" height="3" fill="#4F9D5B"/>
      <rect x="-3" y="-9" width="3" height="3" fill="#4F9D5B"/>
      <rect x="0"  y="-9" width="3" height="3" fill="#4F9D5B"/>
      <rect x="3"  y="-9" width="3" height="3" fill="#4F9D5B"/>
      <rect x="-9" y="-6" width="3" height="3" fill="#4F9D5B"/>
      <rect x="-6" y="-6" width="3" height="3" fill="#4F9D5B"/>
      <rect x="-3" y="-6" width="3" height="3" fill="#4F9D5B"/>
      <rect x="0"  y="-6" width="3" height="3" fill="#4F9D5B"/>
      <rect x="3"  y="-6" width="3" height="3" fill="#4F9D5B"/>
      <rect x="6"  y="-6" width="3" height="3" fill="#4F9D5B"/>
      <rect x="-12" y="-3" width="3" height="3" fill="#4F9D5B"/>
      <rect x="-9"  y="-3" width="3" height="3" fill="#4F9D5B"/>
      <rect x="-6"  y="-3" width="3" height="3" fill="#4F9D5B"/>
      <rect x="-3"  y="-3" width="3" height="3" fill="#4F9D5B"/>
      <rect x="0"   y="-3" width="3" height="3" fill="#4F9D5B"/>
      <rect x="3"   y="-3" width="3" height="3" fill="#4F9D5B"/>
      <rect x="6"   y="-3" width="3" height="3" fill="#4F9D5B"/>
      <rect x="9"   y="-3" width="3" height="3" fill="#4F9D5B"/>
      <rect x="-12" y="0" width="3" height="3" fill="#4F9D5B"/>
      <rect x="-9"  y="0" width="3" height="3" fill="#4F9D5B"/>
      <rect x="-6"  y="0" width="3" height="3" fill="#1a2e1c"/>
      <rect x="-3"  y="0" width="3" height="3" fill="#4F9D5B"/>
      <rect x="0"   y="0" width="3" height="3" fill="#4F9D5B"/>
      <rect x="3"   y="0" width="3" height="3" fill="#1a2e1c"/>
      <rect x="6"   y="0" width="3" height="3" fill="#4F9D5B"/>
      <rect x="9"   y="0" width="3" height="3" fill="#4F9D5B"/>
      <rect x="-12" y="3" width="3" height="3" fill="#4F9D5B"/>
      <rect x="-9"  y="3" width="3" height="3" fill="#4F9D5B"/>
      <rect x="-6"  y="3" width="3" height="3" fill="#4F9D5B"/>
      <rect x="-3"  y="3" width="3" height="3" fill="#4F9D5B"/>
      <rect x="0"   y="3" width="3" height="3" fill="#4F9D5B"/>
      <rect x="3"   y="3" width="3" height="3" fill="#4F9D5B"/>
      <rect x="6"   y="3" width="3" height="3" fill="#4F9D5B"/>
      <rect x="9"   y="3" width="3" height="3" fill="#4F9D5B"/>
      <rect x="-9" y="6" width="3" height="3" fill="#4F9D5B"/>
      <rect x="-6" y="6" width="3" height="3" fill="#4F9D5B"/>
      <rect x="-3" y="6" width="3" height="3" fill="#4F9D5B"/>
      <rect x="0"  y="6" width="3" height="3" fill="#4F9D5B"/>
      <rect x="3"  y="6" width="3" height="3" fill="#4F9D5B"/>
      <rect x="6"  y="6" width="3" height="3" fill="#4F9D5B"/>
      <rect x="-6" y="9" width="3" height="3" fill="#4F9D5B"/>
      <rect x="-3" y="9" width="3" height="3" fill="#4F9D5B"/>
      <rect x="0"  y="9" width="3" height="3" fill="#4F9D5B"/>
      <rect x="3"  y="9" width="3" height="3" fill="#4F9D5B"/>
      <rect x="-3" y="12" width="3" height="3" fill="#4F9D5B"/>
      <rect x="0"  y="12" width="3" height="3" fill="#4F9D5B"/>
      <rect x="-6" y="15" width="3" height="3" fill="#4F9D5B"/>
      <rect x="3"  y="15" width="3" height="3" fill="#4F9D5B"/>
    </g>
    <circle cx="-20" cy="-5" r="1.5" fill="#4F9D5B">
      <animate attributeName="opacity" values=".9;.2;.9" dur="1.8s" repeatCount="indefinite"/>
      <animate attributeName="cy" values="-5;-11;-5" dur="2.5s" repeatCount="indefinite"
        calcMode="spline" keyTimes="0;.5;1" keySplines=".45 0 .55 1;.45 0 .55 1"/>
    </circle>
    <circle cx="18" cy="2" r="2" fill="#4F9D5B">
      <animate attributeName="opacity" values=".4;1;.4" dur="2.2s" repeatCount="indefinite" begin="-.7s"/>
      <animate attributeName="cy" values="2;-4;2" dur="3.1s" repeatCount="indefinite" begin="-.7s"
        calcMode="spline" keyTimes="0;.5;1" keySplines=".45 0 .55 1;.45 0 .55 1"/>
    </circle>
    <circle cx="-15" cy="10" r="1.5" fill="#2C3A2E">
      <animate attributeName="opacity" values=".6;.1;.6" dur="2.8s" repeatCount="indefinite" begin="-1.4s"/>
    </circle>
  </g>

  <!-- ══ MERCURY DJINN (Water · Blue) x=280 ══ -->
  <g>
    <animateTransform attributeName="transform" type="translate"
      values="280,62; 280,49; 280,62" dur="2.8s" repeatCount="indefinite" begin="-1.1s"
      calcMode="spline" keyTimes="0;.5;1" keySplines=".45 0 .55 1;.45 0 .55 1"/>
    <g filter="url(#djinnGlow)">
      <rect x="-6" y="-9" width="3" height="3" fill="#5BA8C4"/>
      <rect x="-3" y="-9" width="3" height="3" fill="#5BA8C4"/>
      <rect x="0"  y="-9" width="3" height="3" fill="#5BA8C4"/>
      <rect x="3"  y="-9" width="3" height="3" fill="#5BA8C4"/>
      <rect x="-9" y="-6" width="3" height="3" fill="#5BA8C4"/>
      <rect x="-6" y="-6" width="3" height="3" fill="#5BA8C4"/>
      <rect x="-3" y="-6" width="3" height="3" fill="#5BA8C4"/>
      <rect x="0"  y="-6" width="3" height="3" fill="#5BA8C4"/>
      <rect x="3"  y="-6" width="3" height="3" fill="#5BA8C4"/>
      <rect x="6"  y="-6" width="3" height="3" fill="#5BA8C4"/>
      <rect x="-12" y="-3" width="3" height="3" fill="#5BA8C4"/>
      <rect x="-9"  y="-3" width="3" height="3" fill="#5BA8C4"/>
      <rect x="-6"  y="-3" width="3" height="3" fill="#5BA8C4"/>
      <rect x="-3"  y="-3" width="3" height="3" fill="#5BA8C4"/>
      <rect x="0"   y="-3" width="3" height="3" fill="#5BA8C4"/>
      <rect x="3"   y="-3" width="3" height="3" fill="#5BA8C4"/>
      <rect x="6"   y="-3" width="3" height="3" fill="#5BA8C4"/>
      <rect x="9"   y="-3" width="3" height="3" fill="#5BA8C4"/>
      <rect x="-12" y="0" width="3" height="3" fill="#5BA8C4"/>
      <rect x="-9"  y="0" width="3" height="3" fill="#5BA8C4"/>
      <rect x="-6"  y="0" width="3" height="3" fill="#0d2a38"/>
      <rect x="-3"  y="0" width="3" height="3" fill="#5BA8C4"/>
      <rect x="0"   y="0" width="3" height="3" fill="#5BA8C4"/>
      <rect x="3"   y="0" width="3" height="3" fill="#0d2a38"/>
      <rect x="6"   y="0" width="3" height="3" fill="#5BA8C4"/>
      <rect x="9"   y="0" width="3" height="3" fill="#5BA8C4"/>
      <rect x="-12" y="3" width="3" height="3" fill="#5BA8C4"/>
      <rect x="-9"  y="3" width="3" height="3" fill="#5BA8C4"/>
      <rect x="-6"  y="3" width="3" height="3" fill="#5BA8C4"/>
      <rect x="-3"  y="3" width="3" height="3" fill="#5BA8C4"/>
      <rect x="0"   y="3" width="3" height="3" fill="#5BA8C4"/>
      <rect x="3"   y="3" width="3" height="3" fill="#5BA8C4"/>
      <rect x="6"   y="3" width="3" height="3" fill="#5BA8C4"/>
      <rect x="9"   y="3" width="3" height="3" fill="#5BA8C4"/>
      <rect x="-9" y="6" width="3" height="3" fill="#5BA8C4"/>
      <rect x="-6" y="6" width="3" height="3" fill="#5BA8C4"/>
      <rect x="-3" y="6" width="3" height="3" fill="#5BA8C4"/>
      <rect x="0"  y="6" width="3" height="3" fill="#5BA8C4"/>
      <rect x="3"  y="6" width="3" height="3" fill="#5BA8C4"/>
      <rect x="6"  y="6" width="3" height="3" fill="#5BA8C4"/>
      <rect x="-6" y="9" width="3" height="3" fill="#5BA8C4"/>
      <rect x="-3" y="9" width="3" height="3" fill="#5BA8C4"/>
      <rect x="0"  y="9" width="3" height="3" fill="#5BA8C4"/>
      <rect x="3"  y="9" width="3" height="3" fill="#5BA8C4"/>
      <rect x="-3" y="12" width="3" height="3" fill="#5BA8C4"/>
      <rect x="0"  y="12" width="3" height="3" fill="#5BA8C4"/>
      <rect x="-6" y="15" width="3" height="3" fill="#5BA8C4"/>
      <rect x="3"  y="15" width="3" height="3" fill="#5BA8C4"/>
    </g>
    <circle cx="-19" cy="-7" r="1.5" fill="#5BA8C4">
      <animate attributeName="opacity" values=".85;.2;.85" dur="2.0s" repeatCount="indefinite" begin="-.3s"/>
      <animate attributeName="cy" values="-7;-13;-7" dur="2.7s" repeatCount="indefinite" begin="-.3s"
        calcMode="spline" keyTimes="0;.5;1" keySplines=".45 0 .55 1;.45 0 .55 1"/>
    </circle>
    <circle cx="19" cy="-3" r="2" fill="#5BA8C4">
      <animate attributeName="opacity" values=".3;.9;.3" dur="2.4s" repeatCount="indefinite" begin="-1.2s"/>
    </circle>
    <circle cx="-12" cy="13" r="1.5" fill="#5BA8C4">
      <animate attributeName="opacity" values=".7;.15;.7" dur="1.9s" repeatCount="indefinite" begin="-.9s"/>
    </circle>
  </g>

  <!-- ══ JUPITER DJINN (Wind · Golden) x=520 ══ -->
  <g>
    <animateTransform attributeName="transform" type="translate"
      values="520,60; 520,47; 520,60" dur="3.5s" repeatCount="indefinite" begin="-.7s"
      calcMode="spline" keyTimes="0;.5;1" keySplines=".45 0 .55 1;.45 0 .55 1"/>
    <g filter="url(#djinnGlow)">
      <rect x="-6" y="-9" width="3" height="3" fill="#C4A84F"/>
      <rect x="-3" y="-9" width="3" height="3" fill="#C4A84F"/>
      <rect x="0"  y="-9" width="3" height="3" fill="#C4A84F"/>
      <rect x="3"  y="-9" width="3" height="3" fill="#C4A84F"/>
      <rect x="-9" y="-6" width="3" height="3" fill="#C4A84F"/>
      <rect x="-6" y="-6" width="3" height="3" fill="#C4A84F"/>
      <rect x="-3" y="-6" width="3" height="3" fill="#C4A84F"/>
      <rect x="0"  y="-6" width="3" height="3" fill="#C4A84F"/>
      <rect x="3"  y="-6" width="3" height="3" fill="#C4A84F"/>
      <rect x="6"  y="-6" width="3" height="3" fill="#C4A84F"/>
      <rect x="-12" y="-3" width="3" height="3" fill="#C4A84F"/>
      <rect x="-9"  y="-3" width="3" height="3" fill="#C4A84F"/>
      <rect x="-6"  y="-3" width="3" height="3" fill="#C4A84F"/>
      <rect x="-3"  y="-3" width="3" height="3" fill="#C4A84F"/>
      <rect x="0"   y="-3" width="3" height="3" fill="#C4A84F"/>
      <rect x="3"   y="-3" width="3" height="3" fill="#C4A84F"/>
      <rect x="6"   y="-3" width="3" height="3" fill="#C4A84F"/>
      <rect x="9"   y="-3" width="3" height="3" fill="#C4A84F"/>
      <rect x="-12" y="0" width="3" height="3" fill="#C4A84F"/>
      <rect x="-9"  y="0" width="3" height="3" fill="#C4A84F"/>
      <rect x="-6"  y="0" width="3" height="3" fill="#3a2e0d"/>
      <rect x="-3"  y="0" width="3" height="3" fill="#C4A84F"/>
      <rect x="0"   y="0" width="3" height="3" fill="#C4A84F"/>
      <rect x="3"   y="0" width="3" height="3" fill="#3a2e0d"/>
      <rect x="6"   y="0" width="3" height="3" fill="#C4A84F"/>
      <rect x="9"   y="0" width="3" height="3" fill="#C4A84F"/>
      <rect x="-12" y="3" width="3" height="3" fill="#C4A84F"/>
      <rect x="-9"  y="3" width="3" height="3" fill="#C4A84F"/>
      <rect x="-6"  y="3" width="3" height="3" fill="#C4A84F"/>
      <rect x="-3"  y="3" width="3" height="3" fill="#C4A84F"/>
      <rect x="0"   y="3" width="3" height="3" fill="#C4A84F"/>
      <rect x="3"   y="3" width="3" height="3" fill="#C4A84F"/>
      <rect x="6"   y="3" width="3" height="3" fill="#C4A84F"/>
      <rect x="9"   y="3" width="3" height="3" fill="#C4A84F"/>
      <rect x="-9" y="6" width="3" height="3" fill="#C4A84F"/>
      <rect x="-6" y="6" width="3" height="3" fill="#C4A84F"/>
      <rect x="-3" y="6" width="3" height="3" fill="#C4A84F"/>
      <rect x="0"  y="6" width="3" height="3" fill="#C4A84F"/>
      <rect x="3"  y="6" width="3" height="3" fill="#C4A84F"/>
      <rect x="6"  y="6" width="3" height="3" fill="#C4A84F"/>
      <rect x="-6" y="9" width="3" height="3" fill="#C4A84F"/>
      <rect x="-3" y="9" width="3" height="3" fill="#C4A84F"/>
      <rect x="0"  y="9" width="3" height="3" fill="#C4A84F"/>
      <rect x="3"  y="9" width="3" height="3" fill="#C4A84F"/>
      <rect x="-3" y="12" width="3" height="3" fill="#C4A84F"/>
      <rect x="0"  y="12" width="3" height="3" fill="#C4A84F"/>
      <rect x="-6" y="15" width="3" height="3" fill="#C4A84F"/>
      <rect x="3"  y="15" width="3" height="3" fill="#C4A84F"/>
    </g>
    <circle cx="20" cy="-7" r="2" fill="#C4A84F">
      <animate attributeName="opacity" values=".8;.2;.8" dur="2.1s" repeatCount="indefinite" begin="-.5s"/>
      <animate attributeName="cy" values="-7;-14;-7" dur="2.9s" repeatCount="indefinite" begin="-.5s"
        calcMode="spline" keyTimes="0;.5;1" keySplines=".45 0 .55 1;.45 0 .55 1"/>
    </circle>
    <circle cx="-18" cy="4" r="1.5" fill="#C4A84F">
      <animate attributeName="opacity" values=".4;1;.4" dur="2.3s" repeatCount="indefinite" begin="-1.3s"/>
    </circle>
    <circle cx="15" cy="12" r="1.5" fill="#C4A84F">
      <animate attributeName="opacity" values=".6;.1;.6" dur="3.0s" repeatCount="indefinite" begin="-.8s"/>
    </circle>
  </g>

  <!-- ══ MARS DJINN (Fire · Red) x=688 ══ -->
  <g>
    <animateTransform attributeName="transform" type="translate"
      values="688,58; 688,46; 688,58" dur="2.6s" repeatCount="indefinite" begin="-1.9s"
      calcMode="spline" keyTimes="0;.5;1" keySplines=".45 0 .55 1;.45 0 .55 1"/>
    <g filter="url(#djinnGlow)">
      <rect x="-6" y="-9" width="3" height="3" fill="#C4614F"/>
      <rect x="-3" y="-9" width="3" height="3" fill="#C4614F"/>
      <rect x="0"  y="-9" width="3" height="3" fill="#C4614F"/>
      <rect x="3"  y="-9" width="3" height="3" fill="#C4614F"/>
      <rect x="-9" y="-6" width="3" height="3" fill="#C4614F"/>
      <rect x="-6" y="-6" width="3" height="3" fill="#C4614F"/>
      <rect x="-3" y="-6" width="3" height="3" fill="#C4614F"/>
      <rect x="0"  y="-6" width="3" height="3" fill="#C4614F"/>
      <rect x="3"  y="-6" width="3" height="3" fill="#C4614F"/>
      <rect x="6"  y="-6" width="3" height="3" fill="#C4614F"/>
      <rect x="-12" y="-3" width="3" height="3" fill="#C4614F"/>
      <rect x="-9"  y="-3" width="3" height="3" fill="#C4614F"/>
      <rect x="-6"  y="-3" width="3" height="3" fill="#C4614F"/>
      <rect x="-3"  y="-3" width="3" height="3" fill="#C4614F"/>
      <rect x="0"   y="-3" width="3" height="3" fill="#C4614F"/>
      <rect x="3"   y="-3" width="3" height="3" fill="#C4614F"/>
      <rect x="6"   y="-3" width="3" height="3" fill="#C4614F"/>
      <rect x="9"   y="-3" width="3" height="3" fill="#C4614F"/>
      <rect x="-12" y="0" width="3" height="3" fill="#C4614F"/>
      <rect x="-9"  y="0" width="3" height="3" fill="#C4614F"/>
      <rect x="-6"  y="0" width="3" height="3" fill="#3a0d0d"/>
      <rect x="-3"  y="0" width="3" height="3" fill="#C4614F"/>
      <rect x="0"   y="0" width="3" height="3" fill="#C4614F"/>
      <rect x="3"   y="0" width="3" height="3" fill="#3a0d0d"/>
      <rect x="6"   y="0" width="3" height="3" fill="#C4614F"/>
      <rect x="9"   y="0" width="3" height="3" fill="#C4614F"/>
      <rect x="-12" y="3" width="3" height="3" fill="#C4614F"/>
      <rect x="-9"  y="3" width="3" height="3" fill="#C4614F"/>
      <rect x="-6"  y="3" width="3" height="3" fill="#C4614F"/>
      <rect x="-3"  y="3" width="3" height="3" fill="#C4614F"/>
      <rect x="0"   y="3" width="3" height="3" fill="#C4614F"/>
      <rect x="3"   y="3" width="3" height="3" fill="#C4614F"/>
      <rect x="6"   y="3" width="3" height="3" fill="#C4614F"/>
      <rect x="9"   y="3" width="3" height="3" fill="#C4614F"/>
      <rect x="-9" y="6" width="3" height="3" fill="#C4614F"/>
      <rect x="-6" y="6" width="3" height="3" fill="#C4614F"/>
      <rect x="-3" y="6" width="3" height="3" fill="#C4614F"/>
      <rect x="0"  y="6" width="3" height="3" fill="#C4614F"/>
      <rect x="3"  y="6" width="3" height="3" fill="#C4614F"/>
      <rect x="6"  y="6" width="3" height="3" fill="#C4614F"/>
      <rect x="-6" y="9" width="3" height="3" fill="#C4614F"/>
      <rect x="-3" y="9" width="3" height="3" fill="#C4614F"/>
      <rect x="0"  y="9" width="3" height="3" fill="#C4614F"/>
      <rect x="3"  y="9" width="3" height="3" fill="#C4614F"/>
      <rect x="-3" y="12" width="3" height="3" fill="#C4614F"/>
      <rect x="0"  y="12" width="3" height="3" fill="#C4614F"/>
      <rect x="-6" y="15" width="3" height="3" fill="#C4614F"/>
      <rect x="3"  y="15" width="3" height="3" fill="#C4614F"/>
    </g>
    <circle cx="-20" cy="-5" r="1.5" fill="#C4614F">
      <animate attributeName="opacity" values=".9;.2;.9" dur="1.7s" repeatCount="indefinite" begin="-.4s"/>
      <animate attributeName="cy" values="-5;-12;-5" dur="2.4s" repeatCount="indefinite" begin="-.4s"
        calcMode="spline" keyTimes="0;.5;1" keySplines=".45 0 .55 1;.45 0 .55 1"/>
    </circle>
    <circle cx="20" cy="-2" r="2" fill="#C4614F">
      <animate attributeName="opacity" values=".35;.95;.35" dur="2.0s" repeatCount="indefinite" begin="-1.0s"/>
    </circle>
    <circle cx="-14" cy="11" r="1.5" fill="#C4614F">
      <animate attributeName="opacity" values=".6;.1;.6" dur="2.6s" repeatCount="indefinite" begin="-1.7s"/>
    </circle>
  </g>

  <!-- center label -->
  <text x="400" y="111" font-family="monospace" font-size="7" letter-spacing="4"
    fill="rgba(175,195,178,0.3)" text-anchor="middle">&#9670; DJINN &#9670;</text>
</svg>
